<mxfile host="app.diagrams.net" modified="2024-07-05T11:32:18.124Z" agent="Mozilla/5.0 (Windows NT 10.0; Win64; x64) AppleWebKit/537.36 (KHTML, like Gecko) Chrome/123.0.0.0 Safari/537.36 OPR/109.0.0.0" version="24.6.4" etag="wTRpBtmp855fwNclTxYq" type="github">
  <diagram name="PÃ¡gina-1" id="oe9mbyCYMh70pObK4s9W">
    <mxGraphModel>
      <root>
        <mxCell id="0" />
        <mxCell id="1" parent="0" />
      </root>
    </mxGraphModel>
  </diagram>
</mxfile>
